<mxfile host="app.diagrams.net" modified="2022-06-14T22:31:57.013Z" agent="5.0 (Windows NT 10.0; Win64; x64) AppleWebKit/537.36 (KHTML, like Gecko) Chrome/102.0.0.0 Safari/537.36" etag="orbW-LI_yBf0P9QSYeHk" version="20.0.1" type="github">
  <diagram id="Ifi-5HRQulp74MqSd9n1" name="Page-1">
    <mxGraphModel dx="1422" dy="795" grid="1" gridSize="10" guides="1" tooltips="1" connect="1" arrows="1" fold="1" page="1" pageScale="1" pageWidth="827" pageHeight="1169" math="0" shadow="0">
      <root>
        <mxCell id="0" />
        <mxCell id="1" parent="0" />
        <mxCell id="vZ5wlWJN89qvG2dwtyq1-1" value="Cadastrar Funcionario" style="shape=umlFrame;whiteSpace=wrap;html=1;width=120;height=30;boundedLbl=1;verticalAlign=middle;align=left;spacingLeft=5;" vertex="1" parent="1">
          <mxGeometry x="180" y="70" width="570" height="700" as="geometry" />
        </mxCell>
        <mxCell id="vZ5wlWJN89qvG2dwtyq1-10" style="edgeStyle=none;shape=connector;rounded=0;orthogonalLoop=1;jettySize=auto;html=1;exitX=1;exitY=0.3333333333333333;exitDx=0;exitDy=0;exitPerimeter=0;labelBackgroundColor=default;fontFamily=Helvetica;fontSize=11;fontColor=default;endArrow=none;strokeColor=default;" edge="1" parent="1" source="vZ5wlWJN89qvG2dwtyq1-2" target="vZ5wlWJN89qvG2dwtyq1-6">
          <mxGeometry relative="1" as="geometry" />
        </mxCell>
        <mxCell id="vZ5wlWJN89qvG2dwtyq1-11" style="edgeStyle=none;shape=connector;rounded=0;orthogonalLoop=1;jettySize=auto;html=1;exitX=1;exitY=0.3333333333333333;exitDx=0;exitDy=0;exitPerimeter=0;entryX=0;entryY=0.5;entryDx=0;entryDy=0;labelBackgroundColor=default;fontFamily=Helvetica;fontSize=11;fontColor=default;endArrow=none;strokeColor=default;" edge="1" parent="1" source="vZ5wlWJN89qvG2dwtyq1-2" target="vZ5wlWJN89qvG2dwtyq1-8">
          <mxGeometry relative="1" as="geometry" />
        </mxCell>
        <mxCell id="vZ5wlWJN89qvG2dwtyq1-14" style="edgeStyle=none;shape=connector;rounded=0;orthogonalLoop=1;jettySize=auto;html=1;exitX=1;exitY=0.3333333333333333;exitDx=0;exitDy=0;exitPerimeter=0;entryX=0;entryY=0.5;entryDx=0;entryDy=0;labelBackgroundColor=default;fontFamily=Helvetica;fontSize=11;fontColor=default;endArrow=none;strokeColor=default;" edge="1" parent="1" source="vZ5wlWJN89qvG2dwtyq1-2" target="vZ5wlWJN89qvG2dwtyq1-13">
          <mxGeometry relative="1" as="geometry" />
        </mxCell>
        <mxCell id="vZ5wlWJN89qvG2dwtyq1-2" value="Gestor/Superior" style="shape=umlActor;verticalLabelPosition=bottom;verticalAlign=top;html=1;outlineConnect=0;" vertex="1" parent="1">
          <mxGeometry x="120" y="300" width="30" height="60" as="geometry" />
        </mxCell>
        <mxCell id="vZ5wlWJN89qvG2dwtyq1-3" value="Efetuar Login&lt;br&gt;" style="ellipse;whiteSpace=wrap;html=1;" vertex="1" parent="1">
          <mxGeometry x="350" y="150" width="140" height="70" as="geometry" />
        </mxCell>
        <mxCell id="vZ5wlWJN89qvG2dwtyq1-5" value="" style="endArrow=none;html=1;rounded=0;exitX=1;exitY=0.3333333333333333;exitDx=0;exitDy=0;exitPerimeter=0;entryX=0;entryY=0.5;entryDx=0;entryDy=0;" edge="1" parent="1" source="vZ5wlWJN89qvG2dwtyq1-2" target="vZ5wlWJN89qvG2dwtyq1-3">
          <mxGeometry width="50" height="50" relative="1" as="geometry">
            <mxPoint x="390" y="420" as="sourcePoint" />
            <mxPoint x="440" y="370" as="targetPoint" />
          </mxGeometry>
        </mxCell>
        <mxCell id="vZ5wlWJN89qvG2dwtyq1-6" value="Acessar Cadastro Funcionario" style="ellipse;whiteSpace=wrap;html=1;" vertex="1" parent="1">
          <mxGeometry x="350" y="260" width="140" height="70" as="geometry" />
        </mxCell>
        <mxCell id="vZ5wlWJN89qvG2dwtyq1-8" value="Preencher Dados&lt;br&gt;Funcionario" style="ellipse;whiteSpace=wrap;html=1;" vertex="1" parent="1">
          <mxGeometry x="350" y="370" width="140" height="70" as="geometry" />
        </mxCell>
        <mxCell id="vZ5wlWJN89qvG2dwtyq1-13" value="Finalizar Cadastro" style="ellipse;whiteSpace=wrap;html=1;fontFamily=Helvetica;fontSize=11;fontColor=default;" vertex="1" parent="1">
          <mxGeometry x="350" y="480" width="140" height="70" as="geometry" />
        </mxCell>
      </root>
    </mxGraphModel>
  </diagram>
</mxfile>
